<svg width="436" height="500" viewBox="0 0 436 500" fill="none" xmlns="http://www.w3.org/2000/svg">
<path d="M4.79284 367.91L0.197372 367.91L0.197383 131.12L4.79285 131.12L4.79284 367.91ZM435.802 131.12L435.802 367.91C435.802 372.442 433.351 376.668 429.431 378.934L224.37 497.33C220.45 499.596 215.549 499.596 211.629 497.33L6.56775 378.934C2.64786 376.668 0.197445 372.442 0.197372 367.91L4.79284 367.91C4.79291 370.794 6.36219 373.507 8.86772 374.956L213.927 493.349L213.929 493.352C216.426 494.795 219.573 494.795 222.07 493.352L222.072 493.349L427.134 374.956C429.638 373.507 431.206 370.794 431.206 367.91L431.206 131.12C431.206 128.236 429.637 125.523 427.131 124.074L427.134 124.072L222.072 5.68023L222.07 5.67799C219.729 4.32477 216.817 4.24033 214.405 5.42443L213.929 5.67799L213.927 5.68023L8.86773 124.072C6.36222 125.52 4.79296 128.235 4.79285 131.12L0.197383 131.12L0.226553 130.274C0.491301 126.347 2.58394 122.734 5.84972 120.542L6.56776 120.096L211.629 1.69959C215.549 -0.56657 220.45 -0.566515 224.37 1.69959L429.431 120.096C433.351 122.362 435.802 126.588 435.802 131.12Z" fill="#10E1FF"/>
</svg>
